<svg xmlns="http://www.w3.org/2000/svg" width="32" height="32" viewBox="0 0 32 32"><path fill="#FFF" d="M0 29c0 1.7 1.3 3 3 3h26c1.7 0 3-1.3 3-3V3c0-1.7-1.3-3-3-3H3C1.3 0 0 1.3 0 3v26z"/><path class="fi-social" fill="#DD4B39" d="M5 16.7c.8.6 1.7.9 2.7.9 1.3 0 2.3-.5 3.2-1.4.4-.6.7-1.3.8-1.9.1-.6.1-1.2.1-1.7 0-1.9-.5-3.9-1.5-5.8-.5-.8-1.1-1.6-1.9-2.2-.8-.5-1.6-.8-2.6-.9-1.3 0-2.4.6-3.2 1.6-.7 1.1-1 2.3-1 3.6 0 1.8.5 3.6 1.5 5.5.5.9 1.1 1.7 1.9 2.3zm2.9 7.4c-.4-.4-.7-.9-.9-1.5-.3-.5-.5-1.1-.5-1.8 0-.4 0-.8.2-1.1l.3-.9c-.5 0-1.1.1-1.6.1-2.3 0-4.1-.7-5.4-1.9v8.7c1.2-.5 2.4-.9 3.6-1.2 1.8-.2 3.2-.4 4.3-.4zm1.3 1.4H8.1c-.3 0-.9 0-1.9.1-1 .1-2 .4-3.1.7-.3.1-.6.2-1 .4s-.9.5-1.4.9c-.3.3-.6.6-.8.9v1.3C0 31 1 32 2.2 32h12.1v-.1c0-1.3-.4-2.3-1.2-3.2-.7-.9-2.1-2-3.9-3.2zM29.8 0H2.2C1 0 0 1 0 2.2v3l.4-.4c1.4-1.1 2.8-1.9 4.3-2.2 1.5-.3 2.8-.4 4.1-.4h9.6l-3 1.8h-3c.3.2.6.4 1 .9.4.4.7.9 1.1 1.4.3.5.6 1.1.9 1.8.2.7.3 1.5.3 2.5 0 1.8-.4 3.1-1.2 4.2-.4.5-.8 1-1.2 1.4-.4.4-.9.9-1.4 1.3-.3.3-.5.6-.8 1-.3.4-.4.9-.4 1.4 0 .5.1.9.4 1.3.3.3.5.6.7.9l1.6 1.3c1 .9 1.9 1.8 2.7 2.8.7 1 1.1 2.4 1.1 4 0 .7-.1 1.3-.3 2h12.6c1.2 0 2.2-1 2.2-2.2V2.2C32 1 31 0 29.8 0zm1.7 9.9h-5.1V15H24V9.9h-5V7.5h5V2.3h2.4v5.1h5.1v2.5z"/></svg>