<svg xmlns="http://www.w3.org/2000/svg" width="32" height="32" viewBox="0 0 32 32"><path fill="#FFF" d="M0 26c0 3.3 2.7 6 6 6h20c3.3 0 6-2.7 6-6V6c0-3.3-2.7-6-6-6H6C2.7 0 0 2.7 0 6v20z"/><path class="fi-social" fill="#4875B4" d="M29.6 0H2.4C1.1 0 0 1 0 2.3v27.4C0 31 1.1 32 2.4 32h27.3c1.3 0 2.4-1 2.4-2.3V2.3C32 1 30.9 0 29.6 0zM9.5 27.3H4.7V12h4.7v15.3zM7.1 9.9c-1.5 0-2.8-1.2-2.8-2.8 0-1.5 1.2-2.8 2.8-2.8 1.5 0 2.8 1.2 2.8 2.8 0 1.6-1.3 2.8-2.8 2.8zm20.2 17.4h-4.7v-7.4c0-1.8 0-4-2.5-4s-2.8 1.9-2.8 3.9v7.6h-4.7V12H17v2.1h.1c.6-1.2 2.2-2.5 4.5-2.5 4.8 0 5.7 3.2 5.7 7.3v8.4z"/></svg>