<svg xmlns="http://www.w3.org/2000/svg" width="97.75" height="97.75" viewBox="0 0 97.75 97.75"><path d="M48.875 0C21.882 0 0 21.882 0 48.875S21.882 97.75 48.875 97.75 97.75 75.868 97.75 48.875 75.868 0 48.875 0zM78.43 35.84c.023.578.035 1.156.035 1.737 0 20.878-15.887 42.473-42.473 42.473-8.127 0-16.04-2.32-22.883-6.708a.36.36 0 0 1-.146-.427.365.365 0 0 1 .383-.237c1.148.137 2.322.205 3.487.205 6.323 0 12.31-1.955 17.372-5.664a15.157 15.157 0 0 1-13.16-10.48.364.364 0 0 1 .072-.35.365.365 0 0 1 .34-.115c1.68.32 3.39.34 5.04.072-6.26-1.945-10.66-7.808-10.66-14.483l.003-.194a.362.362 0 0 1 .538-.31 14.493 14.493 0 0 0 5.29 1.712A15.144 15.144 0 0 1 15.96 31.21c0-2.682.71-5.318 2.054-7.623a.36.36 0 0 1 .284-.178c.12-.013.234.04.31.13 7.36 9.03 18.19 14.59 29.77 15.306a15.344 15.344 0 0 1-.29-2.985c0-8.36 6.8-15.16 15.16-15.16 4.11 0 8.083 1.688 10.93 4.64a29.23 29.23 0 0 0 9.09-3.508.363.363 0 0 1 .41.028c.116.094.164.25.118.394a15.14 15.14 0 0 1-5.33 7.49 29.15 29.15 0 0 0 6.83-2.073.36.36 0 0 1 .448.534 30.22 30.22 0 0 1-7.314 7.637z"/></svg>